<svg width="448" height="385" viewBox="0 0 448 385" fill="none" xmlns="http://www.w3.org/2000/svg">
<path d="M438.6 215.6L278.6 375.6C272.4 381.9 264.2 385 256 385C247.8 385 239.62 381.875 233.38 375.625C220.88 363.125 220.88 342.875 233.38 330.375L338.8 225H32C14.33 225 0.00158691 210.7 0.00158691 193C0.00158691 175.3 14.33 161 32 161H338.8L233.4 55.6C220.9 43.1 220.9 22.85 233.4 10.35C245.9 -2.15002 266.15 -2.15002 278.65 10.35L438.65 170.35C451.1 182.9 451.1 203.1 438.6 215.6Z" fill="#4F0C4F"/>
</svg>
