<svg id="visual" viewBox="0 0 900 600" width="900" height="600" xmlns="http://www.w3.org/2000/svg" xmlns:xlink="http://www.w3.org/1999/xlink" version="1.1"><rect x="0" y="0" width="900" height="600" fill="#f5f6fa"></rect><g transform="translate(884.7497724229644 520.7220004594494)"><path d="M383.1 -424C496.1 -361.6 587.3 -240.6 628.1 -97.7C668.9 45.2 659.2 210.1 588.7 347.2C518.3 484.3 387.1 593.6 242.5 630.9C97.9 668.1 -60 633.4 -170.3 555.3C-280.6 477.2 -343.3 355.8 -429.4 234.4C-515.5 113.1 -625.1 -8.2 -621.6 -123.8C-618.1 -239.3 -501.6 -349.1 -379.1 -409.8C-256.7 -470.6 -128.3 -482.3 3.3 -486.2C135 -490.2 270 -486.4 383.1 -424" fill="#1ff6e9"></path></g></svg>