<svg xmlns="http://www.w3.org/2000/svg" width="168" height="121" viewBox="0 0 168 121">
  <g fill="none" transform="translate(-12 -10)">
    <ellipse cx="44.15" cy="44.212" fill="#D1B9D8" rx="32.008" ry="32.11" transform="rotate(-28.28 44.15 44.212)"/>
    <rect width="102.851" height="71.06" x="44.149" y="35.68" fill="#E5E4F7" opacity=".64" rx="3"/>
    <rect width="24.492" height="15.75" x="50.15" y="70.42" fill="#D1B9D8" rx="2"/>
    <rect width="24.492" height="15.75" x="85.038" y="49.4" fill="#D1B9D8" rx="2"/>
    <rect width="24.492" height="15.75" x="117.604" y="49.4" fill="#D1B9D8" rx="2"/>
    <path fill="#722A88" d="M90.9593949 76.4C88.8361783 77.71 88.5072293 81.06 90.2317197 83.88L105.792006 109.38 98.6847134 105.13C96.053121 103.55 93.3019108 104.45 92.5343631 107.13 91.7668153 109.81 93.2819745 113.27 95.9035987 114.85L120.983471 129.93C122.320824 130.859712 124.064441 130.960106 125.499045 130.19L135.068471 120.19C137.552377 117.586809 138.393036 113.816786 137.251497 110.4L131.968376 94.59C129.815255 91.06 126.156943 89.04 122.997038 89.59L106.190732 92.79 97.8573567 79.15C96.1328662 76.33 93.0128344 75.09 90.8796497 76.4L90.9593949 76.4zM126.994268 42.54C126.561061 42.9445937 125.991244 43.1696763 125.399363 43.17 124.758038 43.1729147 124.144304 42.9085283 123.704777 42.44L99.9207643 17.18C99.0745831 16.2850578 97.6664118 16.2448236 96.770828 17.09L70.7738854 41.75C70.1034443 42.3983204 69.1107973 42.5799984 68.2553384 42.210954 67.3998794 41.8419096 66.8485097 40.9941438 66.8564013 40.06 66.8534959 39.4166256 67.1170402 38.8009313 67.5840764 38.36L96.1428344 11.36C96.804467 10.7315087 97.6882394 10.3930341 98.5990421 10.419301 99.5098448 10.4455679 100.372775 10.8344161 100.997325 11.5L127.093949 39.21C127.524852 39.6628871 127.756876 40.2701139 127.738143 40.8959085 127.71941 41.521703 127.451483 42.1138683 126.994268 42.54z"/>
    <rect width="68.033" height="3.25" x="110.308" y="73.34" fill="#722A88" rx="1.46"/>
    <rect width="40.102" height="3.25" x="139.165" y="91.38" fill="#722A88" rx="1.46"/>
    <rect width="37.161" height="3.25" x="128.589" y="82.78" fill="#722A88" rx="1.46"/>
    <path fill="#722A88" d="M63.1582166,53.46 C63.3105577,52.8403726 63.2084561,52.185327 62.8748352,51.6419309 C62.5412142,51.0985349 62.0040288,50.712321 61.3838854,50.57 L47.5181847,47.36 C46.8933878,47.2143856 46.3539919,46.8211722 46.0229618,46.27 L33.8917197,26.25 C33.2275567,25.1473402 31.8093623,24.7750382 30.6919427,25.41 C30.1310725,25.7257737 29.7220344,26.2564608 29.5585396,26.8804801 C29.3950448,27.5044993 29.4911053,28.1683706 29.8247134,28.72 L42.6038854,49.82 C43.1871065,50.7816124 44.132272,51.4666131 45.2255096,51.72 L60.3073248,55.21 C61.5754407,55.5111681 62.8483114,54.7298253 63.1582166,53.46 Z"/>
  </g>
</svg>
