<svg xmlns="http://www.w3.org/2000/svg" width="137" height="114" viewBox="0 0 137 114">
  <g fill="none" fill-rule="evenodd" transform="translate(-23 -32)">
    <g transform="translate(23 32)">
      <rect width="57.38" height="39.51" x="70.16" y="67.165" fill="#722A88" fill-rule="nonzero" opacity=".4" rx="5.42" transform="rotate(19.92 98.85 86.92)"/>
      <rect width="61.94" height="38.38" x="72.87" y="52.06" stroke="#722A88" stroke-width="2.81" rx="5.66"/>
      <rect width="23.04" height="2.82" x="104.433" y="63.582" fill="#722A88" fill-rule="nonzero" rx=".9" transform="rotate(-.59 115.953 64.992)"/>
      <rect width="23.04" height="2.82" x="104.506" y="70.671" fill="#722A88" fill-rule="nonzero" rx=".9" transform="rotate(-.59 116.026 72.081)"/>
      <rect width="23.04" height="2.82" x="104.574" y="77.22" fill="#722A88" fill-rule="nonzero" rx=".9" transform="rotate(-.59 116.094 78.63)"/>
      <circle cx="89.51" cy="70.83" r="7.42" stroke="#722A88" stroke-width="2.34"/>
      <path fill="#722A88" fill-rule="nonzero" d="M39-1.35525272e-20C29.4390071.0220554055 21.6999746 7.77898169 21.7 17.34L21.7 34.85 28 34.85 28 17.34C27.9999999 13.3886425 30.108024 9.7374376 33.5299999 7.76175884 36.9519759 5.78608008 41.1680241 5.78608008 44.5900001 7.76175884 48.011976 9.7374376 50.1200001 13.3886425 50.12 17.34L50.12 34.85 56.38 34.85 56.38 17.34C56.3800123 12.7342072 54.5476348 8.31763767 51.2870976 5.06460458 48.0265604 1.8115715 43.6057805-.0106246662 39-1.35525272e-20zM39.24 48.2C25.0628505 48.2 13.57 59.6928505 13.57 73.87 13.57 88.0471495 25.0628505 99.54 39.24 99.54 53.4171495 99.54 64.91 88.0471495 64.91 73.87 64.91 67.0618927 62.2054899 60.5326278 57.3914311 55.7185689 52.5773722 50.9045101 46.0481073 48.2 39.24 48.2zM26.4 69.59C26.4 67.2262213 28.3162213 65.31 30.68 65.31 33.0437787 65.31 34.96 67.2262213 34.96 69.59 34.96 71.9537787 33.0437787 73.87 30.68 73.87 29.5448734 73.87 28.4562387 73.4190727 27.653583 72.616417 26.8509273 71.8137613 26.4 70.7251266 26.4 69.59zM39.24 86.71C33.9733333 86.71 31.1366667 84.28 30.73 79.42 30.73 79.42 30.73 79.36 30.73 79.32 30.73 78.6738268 31.2538268 78.15 31.9 78.15L46.68 78.15C47.3231029 78.2030685 47.8018235 78.7667955 47.75 79.41 47.3433333 84.2766667 44.5066667 86.71 39.24 86.71zM47.8 73.88C45.4362213 73.88 43.52 71.9637787 43.52 69.6 43.52 67.2362213 45.4362213 65.32 47.8 65.32 50.1637787 65.32 52.08 67.2362213 52.08 69.6 52.0773509 70.7351275 51.6238811 71.8227105 50.8193494 72.6234915 50.0148176 73.4242725 48.9251275 73.8726553 47.79 73.87L47.8 73.88z"/>
      <path fill="#722A88" fill-rule="nonzero" d="M70.73,34.85 L7.31,34.85 C5.37045361,34.8473413 3.50958133,35.6166459 2.13811364,36.9881136 C0.766645946,38.3595813 -0.00265873766,40.2204536 -8.8817842e-16,42.16 L-8.8817842e-16,105.58 C-0.00265873766,107.519546 0.766645946,109.380419 2.13811364,110.751886 C3.50958133,112.123354 5.37045361,112.892659 7.31,112.89 L70.73,112.89 C74.7538632,112.873467 78.0055462,109.603893 78,105.58 L78,42.16 C78.0055462,38.1361067 74.7538632,34.8665327 70.73,34.85 Z M39.24,104.21 C26.9677063,104.214045 15.9015726,96.8245063 11.2023661,85.4875461 C6.50315961,74.1505859 9.09645231,61.0991711 17.7728444,52.4199183 C26.4492366,43.7406655 39.4997957,41.1430705 50.8383045,45.8385395 C62.1768132,50.5340085 69.5699993,61.5977056 69.57,73.87 C69.553473,90.6155656 55.9855592,104.187953 39.24,104.21 Z"/>
    </g>
    <rect width="180" height="180"/>
  </g>
</svg>
