<svg xmlns="http://www.w3.org/2000/svg" width="180" height="127" viewBox="0 0 180 127">
  <g fill="none" fill-rule="evenodd" transform="translate(0 -49)">
    <g fill-rule="nonzero" transform="translate(.698 49.674)">
      <path fill="#E5E4F7" d="M114.322723,0.100503493 C150.177345,0.100503493 179.235417,23.8067649 179.235417,53.0407185 C179.235417,82.274672 150.177345,105.930682 114.322723,105.930682 C108.994607,105.927056 103.672731,105.566108 98.3929197,104.850269 C97.3952607,104.698872 96.3755012,104.879868 95.4908814,105.36535 L66.6840677,124.938405 C64.9401238,125.890064 62.7851269,125.635126 61.3113784,124.302812 C59.83763,122.970498 59.3672974,120.852057 60.1387777,119.021262 L73.1916688,97.0486855 C74.0421891,95.044673 73.3836318,92.7188158 71.6087388,91.4581787 C58.1287078,81.9103469 49.3346522,68.8448928 49.3346522,53.0407185 C49.3472151,23.8695796 78.4052875,0.11306643 114.322723,0.11306643 L114.322723,0.100503493 Z" opacity=".64"/>
      <path fill="#D1B9D8" d="M79.8374623 36.0179393C80.8887547 34.2049477 81.3620783 32.1144354 81.1942595 30.0254186 80.9009963 25.8835315 78.2731192 22.2708099 74.4228366 20.7162825 72.2745841 19.8775113 69.9130567 19.7541479 67.6891026 20.3645203 67.4271232 15.5165577 64.5085069 11.2098941 60.1027224 9.17017911 55.696938 7.13046409 50.5247996 7.69140792 46.6587467 10.6282444 42.8807568 7.37211554 37.3622952 7.13308613 33.316908 10.0503493 29.1971224 6.78417405 23.4919183 6.39067255 18.9627258 9.06030723 14.4335333 11.7299419 12.0147086 16.9119766 12.8770101 22.0982055 6.26683151 22.5036148.915130672 27.6218957.215533296 34.207439-.484064079 40.7929823 3.67287544 46.921388 10.0503493 48.7065053 10.5141892 48.826503 10.9838065 48.9229423 11.4573982 48.9954529 11.3694577 49.2592746 11.2689542 49.5356592 11.2061395 49.7994808 9.49581911 56.247238 12.7308044 62.9809698 18.8331668 65.6753975 24.9355293 68.3698253 32.0911957 66.2239658 35.7038659 60.6161693 37.2018274 64.546432 40.6485317 67.4052625 44.7879659 68.1508748 48.9274001 68.8964872 53.1550027 67.4199853 55.9301939 64.2594209 59.0015866 66.3037227 62.8373633 66.8364286 66.3495946 65.7064489 69.8618259 64.5764692 72.6673964 61.9070625 73.9705709 58.4553442 79.1314744 57.9663053 83.4375812 54.3060836 84.7516275 49.2913686 86.0656737 44.2766536 84.1079043 38.9750578 79.8500253 36.0179393L79.8374623 36.0179393zM88.6943327 66.7720082C88.6666308 70.3108151 85.7803002 73.1597619 82.2414329 73.14133 78.7025657 73.1228981 75.8460678 70.2440403 75.8552296 66.7051369 75.8643914 63.1662335 78.7357568 60.3022043 82.274672 60.3020959 85.8201527 60.3020959 88.6943327 63.1762758 88.6943327 66.7217565M99.0713183 72.1363822C99.0713183 73.9334066 97.6145422 75.3901828 95.8175177 75.3901828 94.0204933 75.3901828 92.5637171 73.9334066 92.5637171 72.1363822 92.5637171 70.3393577 94.0204933 68.8825816 95.8175177 68.8825816 97.6145422 68.8825816 99.0713183 70.3393577 99.0713183 72.1363822"/>
      <g fill="#722A88" transform="translate(110.554 43.97)">
        <path d="M5.02517465 34.6485792C3.55330147 32.7813163 3.84351435 30.0801041 5.67844736 28.5681179 7.16087388 27.2364466 8.66842628 25.9173383 10.1508528 24.585667 10.9075289 23.8512785 11.9110233 23.4256894 12.9649506 23.392188 17.0018409 23.392188 21.0429189 23.392188 25.0881845 23.392188 26.1634835 23.3562917 27.1547716 23.9708903 27.6007718 24.9499922 31.8219185 32.9525828 36.1058799 40.9174846 40.3647154 48.8949494 40.4843822 49.1184698 40.5408461 49.3703857 40.5280336 49.6235997 40.4024042 51.0306486 40.251649 52.4251346 40.1134567 53.8321835 39.460184 60.34816 38.8110989 66.8683241 38.1662015 73.3926758 38.1307503 74.3495933 37.7107934 75.2517527 37.0013907 75.8949444 36.291988 76.5381362 35.3531255 76.8679732 34.3973205 76.8097946 30.6284395 76.8097946 26.8595585 76.8097946 23.0906775 76.8097946 21.8238628 76.8075481 20.5975544 76.3632334 19.623307 75.5535009 17.5001707 73.9077562 16.7966463 70.4026969 16.3192547 67.9277984 15.9609502 64.9290721 15.2699204 61.9795548 14.2589331 59.1337427 13.2311785 57.0164119 11.9348998 55.0403258 10.4021115 53.2542884 8.72705332 51.1185892 7.01430629 48.9954529 5.26387045 46.8848795L2.65077963 43.7315824C2.17338804 43.1662503.515080402 41.7968902.515080402 40.9802993-.205517035 39.4595023.0840736499 37.652057 1.24373073 36.4325162 2.23086021 35.2742346 3.74674751 34.7087468 5.25130751 34.9375268L5.02517465 34.6485792zM10.9423178 42.1863412C11.7097916 43.1569912 12.6784073 43.9498845 13.7815415 44.5104845 15.4147233 45.000439 17.0855938 45.3773271 18.7439015 45.7667782 19.0517663 45.8825921 19.3989374 45.7737772 19.5856182 45.5029565 20.5027126 44.409981 23.0781146 43.1788132 23.995209 42.0732748 24.1782478 41.8470159 24.2681067 41.5594676 24.2464677 41.2692468 23.4534187 38.126335 22.3899803 35.0579159 21.0680447 32.0983031 19.0831008 32.0983031 17.0855938 32.0983031 15.0880869 32.0983031 14.4762335 32.1273979 13.8694988 32.2243069 13.279024 32.3872506 12.3996185 33.1535898 11.495087 33.9199289 10.6533703 34.7239569 9.64360669 35.8024459 8.19238515 36.3541883 6.7211711 36.2189463 7.96337153 38.3305005 9.36175768 40.3461922 10.904629 42.2491559L10.9423178 42.1863412zM35.0129044 35.0254673C34.7616457 32.8143905 34.5229499 30.7917577 34.2842541 28.743999 33.9576177 25.8796495 33.6435443 23.0152999 33.2917821 20.1509504 32.8897681 16.8008339 32.4710036 13.4507175 32.0354884 10.1006011 31.7339779 7.83927246 31.3947787 5.5905068 31.0932682 3.34174115 30.9549626 1.63363947 29.6296073.26095011 27.9274081.0628146832 26.2085375-.208715763 24.5689877.884317419 24.1585272 2.57540201 24.0186352 3.59924389 24.0483464 4.63913712 24.2464677 5.65332149 24.8494887 10.1006011 25.5027614 14.5353177 26.1309082 18.9825973 26.2314117 19.6484329 26.2816634 20.3268315 26.4324187 20.9675412 26.5063835 21.2398459 26.6816708 21.4735624 26.9223732 21.620814 27.6979901 22.0192413 28.3367475 22.6404985 28.756562 23.404751L34.6108904 34.2842541C34.7239569 34.5480757 34.8244604 34.7113939 35.0129044 35.0254673zM37.5506176 40.2013972L45.2265719 10.3895486C45.7342736 8.93909526 45.2526033 7.32661625 44.0325294 6.39227393 42.8124555 5.45793161 41.1301663 5.41323322 39.8621979 6.28146832 39.1148606 6.78577169 38.5924127 7.56043576 38.4048973 8.44229342 37.3872994 12.5629366 36.3068869 16.6710169 35.3897925 20.8042231 35.2901234 21.8378913 35.3537157 22.8808049 35.5782366 23.8947055 36.080754 28.3922368 36.5958344 32.902331 37.1109148 37.3998624 37.2114183 38.3169567 37.3244847 39.2214882 37.4375512 40.1385826L37.5506176 40.2013972zM40.7541664 45.8547187L48.9954529 33.9199289C51.0306486 30.9676388 53.0658444 28.0279116 55.0884771 25.1258733 55.9098677 24.083439 56.0822666 22.6702932 55.5355842 21.4609587 54.9889017 20.2516242 53.8141608 19.4474562 52.4889595 19.3753938 51.1637581 19.3033314 49.9087433 19.9753731 49.2341487 21.1182965L44.409981 27.9902228C43.5305754 29.2465165 42.6134811 30.5028102 41.7592014 31.7591038 41.4907276 32.1992184 41.2915778 32.6780254 41.1687434 33.1787157 40.4024042 35.9551247 39.6737539 38.7315336 38.9325406 41.5205056 38.860585 41.7409144 38.860585 41.9784954 38.9325406 42.1989042 39.4978728 43.3672573 40.1008937 44.5607362 40.7541664 45.8547187z"/>
      </g>
      <g fill="#722A88" stroke="#722A88" stroke-width=".5" transform="translate(23.87 16.332)">
        <path d="M14.271496 1.94725518C15.700543 2.7311826 16.8836035 3.89684508 17.6886148 5.3141222 18.5392533 6.85064155 18.9724039 8.58324399 18.9449084 10.3392969 18.9451382 11.8681737 18.5467746 13.3706971 17.7891183 14.6986359 17.0198707 16.0727065 15.9346954 17.2440067 14.6232582 18.1157546 13.3118694 19.0096969 11.7942005 19.5545011 10.2136675 19.6986846L10.2136675 24.2464677C10.1968118 24.7886904 9.86426596 25.270899 9.36343083 25.4793547 8.86259569 25.6878104 8.28611921 25.5839517 7.88952421 25.2138138 7.63051826 24.9621188 7.50092647 24.6057414 7.53776198 24.2464677L7.53776198 18.844405C7.53099736 18.4750555 7.67106325 18.1181134 7.92721302 17.851933 8.17574593 17.5834713 8.52895684 17.4366824 8.89455914 17.449919 10.8200748 17.3924746 12.6592813 16.6380429 14.070489 15.3267827 15.4313001 14.0563594 16.1815492 12.2630811 16.1308106 10.4021115 16.1534919 9.13253521 15.8507439 7.87829345 15.2514051 6.75885991 14.7003966 5.71476457 13.869521 4.84473777 12.8518842 4.24627258 11.8287905 3.65644832 10.6658697 3.35270035 9.48501716 3.36686702 8.28648353 3.36549387 7.10543169 3.65429122 6.04277252 4.20858377 4.96478981 4.75856515 4.02115909 5.53920511 3.27892646 6.49503824 2.99148109 6.82176741 2.58305007 7.01690668 2.14826216 7.03524452 1.88610124 7.04983607 1.62744863 6.96956457 1.41961184 6.80911166 1.01384235 6.59912575.75406254 6.18540235.741213262 5.72869911.754155505 5.39407746.882937287 5.07434338 1.10553842 4.82416767 2.08929029 3.57207811 3.34332875 2.55854017 4.77391592 1.85931462 6.23142516 1.12660723 7.84114856.747848786 9.47245422.753776198 11.1479273.734211905 12.8003628 1.1451579 14.271496 1.94725518zM10.3644227 30.0756703C10.6495771 30.4300947 10.7928544 30.8778365 10.7664367 31.331964L10.7664367 32.324436C10.7928544 32.7785634 10.6495771 33.2263052 10.3644227 33.5807296 10.0570606 33.8987415 9.62466492 34.0643399 9.18350668 34.0329953L8.91968501 34.0329953C8.45426462 34.0784438 7.99304699 33.9124055 7.66339135 33.5807296 7.37823702 33.2263052 7.23495964 32.7785634 7.26137738 32.324436L7.26137738 31.331964C7.23495964 30.8778365 7.37823702 30.4300947 7.66339135 30.0756703 7.99304699 29.7439945 8.45426462 29.5779561 8.91968501 29.6234046L9.19606962 29.6234046C9.63295266 29.5958348 10.0599689 29.7611314 10.3644227 30.0756703zM27.0228767 33.6058555C26.7366389 33.2520149 26.5932239 32.8038429 26.6208627 32.3495618L26.6208627 31.3570898C26.594445 30.9029624 26.7377224 30.4552206 27.0228767 30.1007962 27.3525323 29.7691203 27.81375 29.603082 28.2791704 29.6485305L28.555555 29.6485305C28.9967132 29.6171859 29.4291089 29.7827843 29.736471 30.1007962 30.0227088 30.4546367 30.1661238 30.9028088 30.138485 31.3570898L30.138485 32.3495618C30.1661238 32.8038429 30.0227088 33.2520149 29.736471 33.6058555 29.4291089 33.9238674 28.9967132 34.0894657 28.555555 34.0581212L28.2791704 34.0581212C27.81375 34.1035697 27.3525323 33.9375313 27.0228767 33.6058555zM27.4248907 24.2464677L26.9223732 4.25883552C26.8966861 3.77936008 27.0242877 3.30415421 27.2866984 2.90203836 27.5394395 2.56353338 27.94539 2.3747192 28.3671109 2.3995209 28.7911518 2.37760095 29.1975715 2.57135914 29.4475235 2.9146013 29.6999143 3.31015176 29.8106402 3.77962917 29.7615969 4.24627258L29.2590794 24.2339048C29.2590794 24.8704269 28.9575689 25.188688 28.354548 25.188688 27.751527 25.188688 27.4458289 24.8746145 27.4374536 24.2464677L27.4248907 24.2464677z"/>
      </g>
    </g>
    <rect width="180" height="180" x="10"/>
  </g>
</svg>
