<svg xmlns="http://www.w3.org/2000/svg" width="136" height="130" viewBox="0 0 136 130">
  <g fill="none" fill-rule="evenodd" transform="translate(-22 -31)">
    <g fill-rule="nonzero" transform="translate(21.977 31.116)">
      <path fill="#E5E4F7" d="M63.2302326,120.694186 C53.2574417,120.701145 43.4520841,118.130843 34.7651163,113.232558 C34.8697674,112.834884 34.8697674,112.437209 34.9639535,112.039535 C35.079387,111.481273 35.1459181,110.914008 35.1627907,110.344186 C35.2784365,109.652086 35.3448821,108.952659 35.3616279,108.251163 C35.4662791,107.654651 35.4662791,107.204651 35.5604651,106.555814 C35.6546512,105.906977 35.6651163,105.163953 35.7593023,104.462791 C35.8534884,103.761628 35.8639535,103.416279 35.8639535,102.767442 C35.8639535,102.118605 35.9686047,101.375581 35.9686047,100.674419 C35.9686047,99.9732558 36.0732558,99.627907 36.0732558,98.9790698 L36.0732558,91.4127907 C36.0732558,90.6174419 35.9686047,89.822093 35.9686047,89.0267442 C35.9836425,88.5916031 35.9485276,88.1561776 35.8639535,87.7290698 C35.7593023,86.5360465 35.6651163,85.2383721 35.5604651,84.0453488 C34.9639535,78.0697674 33.6662791,70.6081395 28.4965116,65.7313953 C27.5790858,64.8826731 26.6147808,64.0860733 25.6081395,63.3453488 C24.6407084,62.6307086 23.711519,61.8656993 22.8244186,61.0534884 C17.8534884,55.8209302 20.0406977,46.3290698 25.1162791,40.2488372 C25.3247493,39.9624863 25.559488,39.6962155 25.8174419,39.4534884 C27.276687,37.9269644 28.4562609,36.1558324 29.3023256,34.2209302 C29.9230797,32.1894304 30.1608383,30.0602486 30.0034884,27.9418605 C29.8522765,26.3991034 30.0233351,24.8417572 30.505814,23.3686047 C31.5523256,20.6790698 34.7860465,19.2872093 38.1662791,17.7906977 C39.2127907,17.3930233 40.1546512,16.8906977 41.1488372,16.3988372 C41.3476744,16.294186 41.6511628,16.0953488 41.85,16.0011628 C41.9260916,15.9894189 41.9960767,15.9525846 42.0488372,15.8965116 C42.2476744,15.7918605 42.3523256,15.6976744 42.5511628,15.5930233 C42.75,15.4883721 42.75,15.4883721 42.8546512,15.394186 C42.9593023,15.3 43.1581395,15.1953488 43.3569767,15.0906977 C43.555814,14.9860465 43.555814,14.9860465 43.6604651,14.8918605 C43.8509814,14.7913885 44.0212844,14.6565653 44.1627907,14.494186 C44.2674419,14.3895349 44.3616279,14.3895349 44.3616279,14.2953488 C44.5604651,14.0965116 44.7593023,13.9918605 44.9581395,13.7930233 L45.0627907,13.6883721 C45.2859644,13.4764986 45.4859301,13.2414512 45.6593023,12.9872093 L45.8581395,12.7883721 C45.9627907,12.5895349 46.1616279,12.4848837 46.255814,12.2860465 C46.35,12.0872093 46.3604651,12.0872093 46.4546512,11.9825581 C46.5488372,11.877907 46.6534884,11.6790698 46.7581395,11.4802326 C46.8627907,11.2813953 46.8627907,11.2813953 46.9569767,11.1767442 C47.0511628,11.072093 47.155814,10.8732558 47.2604651,10.6744186 C47.3651163,10.4755814 47.3651163,10.4755814 47.4593023,10.3709302 L47.7627907,9.7744186 C47.7627907,9.66976744 47.8674419,9.66976744 47.8674419,9.5755814 C47.972093,9.27209302 48.0662791,9.07325581 48.1709302,8.78023256 C48.1826742,8.70414097 48.2195084,8.63415586 48.2755814,8.58139535 C48.3802326,8.38255814 48.3802326,8.18372093 48.4744186,7.98488372 C48.5686047,7.78604651 48.5790698,7.78604651 48.5790698,7.68139535 C48.6039504,7.51202443 48.638896,7.34428562 48.6837209,7.17906977 C48.6700536,7.06719386 48.7086531,6.95525511 48.7883721,6.8755814 L48.7883721,6.67674419 C56.3363892,4.78814569 64.1864859,4.43229362 71.8744186,5.63023256 C71.7697674,5.93372093 71.4767442,6.13255814 71.277907,6.4255814 L70.9744186,6.72906977 C70.6004121,7.10399924 70.2018561,7.45360973 69.7813953,7.7755814 L69.477907,8.07906977 L68.577907,8.97906977 C68.4732558,9.17790698 68.2744186,9.28255814 68.1802326,9.48139535 C68.0860465,9.68023256 67.677907,9.98372093 67.4790698,10.2767442 C67.2802326,10.5697674 67.1755814,10.5802326 67.0813953,10.7790698 C66.9872093,10.977907 66.6837209,11.2813953 66.4848837,11.5744186 C66.2860465,11.8674419 66.1813953,11.877907 66.0872093,12.0767442 C65.9930233,12.2755814 65.6895349,12.5790698 65.4906977,12.872093 C65.2918605,13.1651163 65.1872093,13.1755814 65.0930233,13.3744186 C64.9988372,13.5732558 64.894186,13.5732558 64.894186,13.677907 C64.7196987,13.9604409 64.5200506,14.2266385 64.2976744,14.4732558 C60.4151163,19.6534884 56.0406977,25.3255814 53.3511628,31.7930233 C52.4449973,33.9801998 51.7443028,36.2469463 51.2581395,38.5639535 C51.1534884,39.0662791 51.0593023,39.6104651 50.9546512,40.1546512 C50.5569767,42.5406977 50.1593023,44.727907 48.7674419,46.0255814 C48.1076501,46.5903478 47.3712857,47.0589434 46.5802326,47.4174419 C45.5855526,47.9446478 44.6520096,48.5798782 43.7965116,49.3116279 C41.4735874,51.3522862 40.3001958,54.4031045 40.6569767,57.4744186 C40.9851552,61.7038079 43.2185787,65.554538 46.7267442,67.9395349 C51.1011628,70.827907 56.3755814,71.0790698 59.9651163,71.0790698 C61.7546512,71.0790698 63.45,70.9744186 65.1453488,70.8802326 C65.7418605,70.8802326 66.3383721,70.7755814 66.8406977,70.7755814 C67.6258643,70.7148609 68.413745,70.8515708 69.1325581,71.1732558 C69.9112536,71.5544775 70.5408714,72.1840952 70.922093,72.9627907 C71.5385053,74.4034687 71.7797362,75.9768701 71.6232558,77.5360465 C71.5671854,79.4390443 71.3677835,81.3351108 71.0267442,83.2081395 C70.8037739,84.7584325 70.6709923,86.3203625 70.6290698,87.8860465 C70.5649725,90.5640088 71.0051845,93.2301315 71.9267442,95.7453488 C72.3948695,96.8414034 72.9623539,97.8923006 73.622093,98.8848837 C75.9538579,102.114203 79.6855262,104.038344 83.6686047,104.065116 C85.9724353,104.100414 88.2082712,103.284334 89.9476744,101.773256 C94.227907,97.9953488 93.7255814,92.0197674 93.4325581,87.2476744 L93.4325581,86.5465116 C93.1290698,82.5697674 93.2337209,72.9418605 99.5023256,68.8290698 C99.7011628,68.7244186 99.9,68.5255814 100.098837,68.4313953 C101.614175,67.5972689 102.837658,66.3190034 103.604651,64.7686047 C103.987622,63.5803492 104.091474,62.319795 103.90814,61.0848837 C103.857364,60.6538156 103.857364,60.2182774 103.90814,59.7872093 C104.106977,57.8930233 107.047674,57.694186 107.790698,57.694186 L107.895349,57.694186 C109.094626,57.6662861 110.285066,57.905804 111.380233,58.3953488 C112.280233,58.7930233 113.169767,59.2953488 114.163953,59.7872093 C114.561628,59.9860465 114.865116,60.1848837 115.210465,60.3837209 L115.315116,60.3837209 C115.618605,60.5825581 116.016279,60.6872093 116.361628,60.8860465 C116.390293,60.8826369 116.418939,60.8925612 116.439352,60.9129737 C116.459764,60.9333862 116.469689,60.9620322 116.466279,60.9906977 C117.177201,61.3330326 117.907515,61.6335445 118.653488,61.8906977 C118.72958,61.9024416 118.799565,61.9392759 118.852326,61.9953488 L119.752326,62.2988372 C119.856977,62.2988372 119.951163,62.4034884 120.055814,62.4034884 C120.39476,62.5140628 120.746444,62.5808828 121.102326,62.6023256 L121.206977,62.6023256 L121.206977,63 C120.903984,94.8687731 95.0582708,120.583952 63.1883721,120.725581 L63.2302326,120.694186 Z M125.926744,62.372093 L125.822093,59.9860465 C124.685009,32.7238451 105.987515,9.35303562 79.6395349,2.26046512 L78.9383721,2.15581395 C68.8949933,-0.447369696 58.3623516,-0.515693422 48.2860465,1.95697674 L48.2860465,1.85232558 L45.7011628,2.64767442 C21.7980465,9.59659581 4.26993581,30.0284595 1.03753423,54.7103974 C-2.19486734,79.3923353 9.48076216,103.648786 30.7883721,116.518605 L33.8755814,118.412791 L33.8755814,118.255814 C53.3278627,128.519727 76.7324919,127.857549 95.5733347,116.510223 C114.414177,105.162897 125.944419,84.7847554 125.968605,62.7906977 L125.968605,62.372093 L125.926744,62.372093 Z" opacity=".64"/>
      <rect width="46.467" height="4.636" x="1.422" y="104.18" fill="#D1B9D8" rx="1.58" transform="rotate(-89.427 24.655 106.499)"/>
      <rect width="46.465" height="4.636" x="8.947" y="101.588" fill="#D1B9D8" rx="1.58" transform="rotate(-89.53 32.18 103.906)"/>
      <rect width="46.465" height="4.636" x="34.376" y="101.8" fill="#D1B9D8" rx="1.58" transform="rotate(-89.53 57.609 104.118)"/>
      <rect width="46.465" height="4.636" x="41.372" y="104.269" fill="#D1B9D8" rx="1.58" transform="rotate(-89.53 64.605 106.587)"/>
      <path fill="#D1B9D8" d="M27.5337209,80.5081395 C27.0523256,80.4348837 25.6918605,67.5 25.4406977,66.2546512 C24.6120306,60.6761914 23.2092344,55.1982725 21.2546512,49.9081395 C20.7519613,48.4979664 20.0770889,47.1552517 19.2453488,45.9104651 C18.3922033,44.767974 17.376847,43.7561433 16.2313953,42.9069767 C14.4602654,41.547132 12.0568902,41.3506038 10.0883721,42.4046512 L9.87906977,42.5197674 C9.27209302,42.8337209 15.1116279,61.3569767 15.477907,62.7488372 L21.6,84.7674419 L22.7093023,88.7546512 L65.3127907,89.2360465 C66.5451629,89.2483072 67.6934619,88.6125708 68.3372093,87.5616279 C69.0617198,86.3750054 69.0165585,84.8723656 68.222093,83.7313953 L67.2906977,82.4023256 C66.6478705,81.4727172 65.5952242,80.9113059 64.4651163,80.8953488 L27.5337209,80.5081395 Z"/>
      <rect width="69.3" height="42.938" x="53.634" y="23.986" fill="#FFF" stroke="#722A88" stroke-width="2.78" rx="5.66"/>
      <path fill="#722A88" d="M110.856977,35.0162791 L65.6790698,35.4872093 C65.1244186,35.4872093 64.6325581,36.1255814 64.6848837,36.9104651 L64.6848837,37.2453488 C64.6848837,38.0197674 65.1453488,38.6476744 65.7313953,38.6476744 L110.930233,38.1662791 C111.484884,38.1662791 111.976744,37.527907 111.924419,36.7430233 L111.924419,36.4186047 C111.872093,35.6337209 111.411628,35.0162791 110.856977,35.0162791 Z"/>
      <rect width="27.816" height="3.15" x="74.371" y="52.627" fill="#722A88" rx="1.24" transform="rotate(-.59 88.279 54.202)"/>
      <rect width="25.776" height="3.15" x="75.39" y="43.942" fill="#722A88" rx="1.24" transform="rotate(-.59 88.278 45.517)"/>
      <path fill="#FFF" d="M115.409302,73.0465116 C118.043433,73.7574603 120.839769,73.5658799 123.352326,72.5023256 C124.660465,71.9372093 125.863953,71.1418605 127.193023,70.6290698 C128.428287,70.292688 129.63827,69.8695437 130.813953,69.3627907 C133.827907,67.7093023 134.644186,63.805814 134.926744,60.3732558 C135.099591,59.1829376 135.013926,57.9693504 134.675581,56.8151163 C134.168681,55.6736079 133.401728,54.6665348 132.436047,53.8744186 C126.931395,48.7569767 120.6,43.6813953 113.693023,49.227907 C111.390313,50.974106 109.547656,53.2549785 108.324419,55.8732558 C107.108319,58.5216879 107.058966,61.5588023 108.188372,64.2453488 C108.92093,65.8360465 110.155814,67.2174419 110.553488,68.9232558 C110.624597,69.4477239 110.761731,69.9610971 110.961628,70.4511628 C112.688372,73.7267442 117.92093,71.9162791 120.788372,72.4709302 C122.494186,72.7953488 124.513953,72.805814 125.644186,71.4976744 C127.789535,77.1383721 129.955814,82.8627907 130.54186,88.8802326 C130.6055,90.5602278 130.840438,92.2293414 131.243023,93.8616279 C132.090698,96.5930233 134.256977,99.2616279 133.336047,101.982558 C132.290831,100.536907 130.797069,99.4772923 129.087209,98.9686047 C128.811793,100.374252 128.699422,101.806975 128.752326,103.238372 C127.151163,101.804651 126.533721,99.5965116 126.04186,97.5034884 C124.872856,92.487441 124.00272,87.4064068 123.436047,82.2872093 C123.090698,79.2104651 122.713953,75.8197674 120.432558,73.7267442 C121.353488,82.9151163 118.433721,92.0093023 115.555814,100.789535 C114.844186,99.3034884 113.588372,97.5453488 111.997674,97.9953488 C110.406977,98.4453488 110.197674,100.402326 108.952326,101.27093 C109.049095,97.3722229 109.525769,93.492239 110.375581,89.6860465 C111.955814,83.5430233 115.503488,77.8290698 115.69186,71.4872093"/>
      <path fill="#722A88" d="M126.366279,65.9302326 L126.219767,66.0767442 C125.755147,66.5392007 125.222174,66.9274589 124.639535,67.227907 C124.566279,67.3011628 124.493023,67.3011628 124.419767,67.3744186 C123.722933,67.7284685 122.973926,67.9687158 122.201163,68.0860465 C121.82063,68.1468904 121.435175,68.1714193 121.05,68.1593023 C120.694186,68.1593023 120.265116,68.0860465 119.898837,68.0860465 C119.128663,67.9578588 118.381276,67.7181312 117.680233,67.3744186 C117.606977,67.3011628 117.533721,67.3011628 117.460465,67.227907 C116.90444,66.8860822 116.376076,66.5011814 115.880233,66.0767442 L115.733721,65.9302326 C114.450005,64.5761665 113.731355,62.7832858 113.724419,60.9174419 C113.704086,58.9981007 114.480958,57.1563453 115.869767,55.8313953 C117.213436,54.4699584 119.043013,53.6982234 120.955814,53.6860465 C122.875155,53.6657137 124.716911,54.4425859 126.04186,55.8313953 C127.403297,57.1750641 128.175032,59.0046407 128.187209,60.9174419 C128.321321,62.7713772 127.659019,64.5946108 126.366279,65.9302326 Z M121.133721,51.5930233 C117.162724,51.6398316 113.647732,54.1723583 112.346271,57.9243187 C111.044809,61.676279 112.236538,65.8414494 115.325581,68.3372093 C115.918029,68.8036287 116.568888,69.1906263 117.261628,69.4883721 C117.554368,69.6489952 117.867753,69.7687151 118.193023,69.844186 C118.94104,70.0620941 119.708698,70.2058109 120.484884,70.2732558 L121.772093,70.2732558 C122.548316,70.206081 123.316,70.0623593 124.063953,69.844186 C124.385036,69.7554982 124.696917,69.6363528 124.995349,69.4883721 C125.688639,69.1917083 126.339636,68.8046293 126.931395,68.3372093 C130.019051,65.8426801 131.211346,61.6800924 129.912584,57.9291572 C128.613823,54.178222 125.102812,51.6441539 121.133721,51.5930233 Z"/>
      <path fill="#722A88" d="M133.817442,61.1686047 C133.695959,61.4181525 133.552362,61.656314 133.388372,61.8802326 C133.115835,62.2349121 132.948969,62.65933 132.906977,63.1046512 C132.906977,63.2511628 132.833721,63.3872093 132.833721,63.5337209 C132.84322,63.9214306 132.892312,64.3071549 132.980233,64.6848837 C133.041982,64.8980432 133.090907,65.1147103 133.126744,65.3337209 L133.126744,65.4069767 C132.947203,65.5880315 132.754844,65.7559084 132.551163,65.9093023 C132.136565,66.1855164 131.780865,66.5412158 131.504651,66.955814 C131.33828,67.2196335 131.217962,67.5098126 131.148837,67.8139535 C131.075581,68.2430233 131.075581,68.5988372 131.002326,68.8604651 C130.92907,69.122093 130.92907,69.0802326 130.92907,69.1430233 L130.92907,69.2162791 C130.86783,69.2678195 130.789218,69.2940236 130.709302,69.2895349 C130.562791,69.3627907 130.280233,69.4360465 129.924419,69.572093 C129.503225,69.7054603 129.099262,69.8881217 128.72093,70.1162791 C128.487443,70.3165629 128.292398,70.5577095 128.145349,70.827907 C127.925581,71.1837209 127.789535,71.4767442 127.643023,71.6860465 C127.5851,71.7528206 127.535871,71.8266644 127.496512,71.905814 L127.423256,71.9790698 C127.311238,72.0286007 127.189915,72.0535789 127.067442,72.0523256 L126.209302,72.0523256 C125.969871,72.0444378 125.730477,72.0690813 125.497674,72.1255814 C125.351163,72.1255814 125.277907,72.1988372 125.14186,72.1988372 C124.845809,72.30517 124.577532,72.4768668 124.356977,72.7011628 C124.074419,72.9837209 123.781395,73.2034884 123.645349,73.35 C123.509302,73.4965116 123.498837,73.4965116 123.425581,73.4965116 L123.205814,73.4965116 C123.000463,73.4651929 122.804201,73.3902565 122.630233,73.2767442 C121.682352,72.7991042 120.564159,72.7991042 119.616279,73.2767442 C119.432088,73.3686939 119.239299,73.4423041 119.040698,73.4965116 L118.894186,73.4965116 C118.82093,73.4965116 118.611628,73.2767442 118.318605,72.994186 C117.983839,72.6202603 117.568834,72.3268947 117.104651,72.1360465 C116.993662,72.0833733 116.871607,72.0582443 116.748837,72.0627907 C116.516034,72.0062906 116.27664,71.9816471 116.037209,71.9895349 L114.823256,71.9895349 C114.75,71.9895349 114.75,71.8430233 114.603488,71.7069767 C114.514992,71.5984903 114.441106,71.4788655 114.383721,71.3511628 C114.310465,71.2046512 114.163953,70.9953488 114.027907,70.7755814 C113.879943,70.5240195 113.684451,70.3036467 113.452326,70.1267442 C113.182873,69.9324414 112.89553,69.7642403 112.594186,69.6244186 C112.238372,69.477907 111.882558,69.4046512 111.662791,69.3418605 C111.443023,69.2790698 111.443023,69.2686047 111.380233,69.1953488 L111.306977,69.1953488 C111.255436,69.1341096 111.229232,69.0554971 111.233721,68.9755814 C111.160465,68.755814 111.160465,68.4732558 111.087209,68.1906977 C111.021946,67.7710316 110.898674,67.3624722 110.72093,66.9767442 C110.540533,66.7091458 110.321937,66.469395 110.072093,66.2651163 C109.789535,65.9825581 109.496512,65.8360465 109.287209,65.6162791 L109.067442,65.3965116 L108.994186,65.3232558 L108.994186,65.25 C109.023797,65.0298242 109.072826,64.8126991 109.140698,64.6011628 C109.239717,64.22551 109.288976,63.8384801 109.287209,63.45 C109.297841,63.3031575 109.272704,63.1559269 109.213953,63.0209302 C109.151689,62.714648 109.030873,62.4232686 108.85814,62.1627907 C108.66727,61.8911181 108.499252,61.6040885 108.355814,61.3046512 C108.282558,61.2313953 108.282558,61.0848837 108.209302,61.0848837 L108.209302,61.0116279 C108.213928,60.9551752 108.240171,60.9026883 108.282558,60.8651163 C108.404041,60.6155684 108.547638,60.3774069 108.711628,60.1534884 C108.989858,59.8041041 109.163959,59.3833615 109.213953,58.9395349 C109.213953,58.7930233 109.287209,58.6569767 109.287209,58.5104651 C109.27771,58.1227555 109.228618,57.7370312 109.140698,57.3593023 C109.078948,57.1461428 109.030023,56.9294757 108.994186,56.7104651 L108.994186,56.6372093 C109.173727,56.4561546 109.366086,56.2882777 109.569767,56.1348837 C109.984366,55.8586696 110.340065,55.5029703 110.616279,55.0883721 C110.78265,54.8245525 110.902968,54.5343735 110.972093,54.2302326 C111.045349,53.8011628 111.045349,53.4453488 111.118605,53.1837209 C111.19186,52.922093 111.19186,52.9639535 111.19186,52.9011628 L111.19186,52.827907 C111.2531,52.7763666 111.331712,52.7501624 111.411628,52.7546512 C111.55814,52.6813953 111.840698,52.6081395 112.196512,52.472093 C112.601045,52.3250357 112.987308,52.1319043 113.347674,51.8965116 C113.581162,51.6962278 113.776207,51.4550812 113.923256,51.1848837 C114.143023,50.8290698 114.27907,50.5360465 114.425581,50.3267442 C114.483504,50.2599701 114.532733,50.1861263 114.572093,50.1069767 L114.645349,50.0337209 C114.759798,49.9893182 114.886714,49.9893182 115.001163,50.0337209 L115.859302,50.0337209 C116.213912,50.0443627 116.56776,49.9948239 116.905814,49.8872093 C117.201866,49.7808765 117.470142,49.6091797 117.690698,49.3848837 C117.973256,49.1023256 118.266279,48.8825581 118.402326,48.7360465 C118.538372,48.5895349 118.548837,48.5895349 118.622093,48.5895349 L118.695349,48.5895349 C118.695349,48.5895349 118.977907,48.6627907 119.406977,48.8093023 C120.354857,49.2869423 121.47305,49.2869423 122.42093,48.8093023 C122.648579,48.7080698 122.887469,48.634295 123.132558,48.5895349 C123.205814,48.5895349 123.415116,48.8093023 123.70814,49.0918605 C124.042905,49.4657862 124.45791,49.7591518 124.922093,49.95 C125.260147,50.0576146 125.613995,50.1071534 125.968605,50.0965116 L127.182558,50.0965116 C127.337673,50.2906661 127.458051,50.5101783 127.538372,50.7453488 C127.611628,50.8918605 127.75814,51.1011628 127.894186,51.3209302 C128.04215,51.5724921 128.237642,51.792865 128.469767,51.9697674 C128.73922,52.1640702 129.026563,52.3322714 129.327907,52.472093 C129.683721,52.6186047 130.039535,52.6918605 130.259302,52.7546512 C130.47907,52.8174419 130.47907,52.827907 130.54186,52.9011628 L130.615116,52.9011628 C130.666657,52.9624021 130.692861,53.0410146 130.688372,53.1209302 C130.761628,53.3406977 130.761628,53.6232558 130.834884,53.905814 C130.896812,54.3249653 131.016556,54.7335062 131.190698,55.1197674 C131.371094,55.3873658 131.589691,55.6271166 131.839535,55.8313953 C132.122093,56.1139535 132.415116,56.2604651 132.624419,56.4802326 L132.844186,56.7 L132.844186,56.8465116 C132.814575,57.0666874 132.765546,57.2838125 132.697674,57.4953488 C132.598655,57.8710016 132.549396,58.2580315 132.551163,58.6465116 C132.540531,58.7933541 132.565668,58.9405847 132.624419,59.0755814 C132.686683,59.3818637 132.807499,59.673243 132.980233,59.9337209 C133.171102,60.2053935 133.33912,60.4924231 133.482558,60.7918605 C133.555814,60.8651163 133.555814,61.0116279 133.62907,61.0116279 L133.62907,61.0848837 C133.817442,61.022093 133.817442,61.022093 133.817442,61.1686047 Z M132.027907,99.5232558 L130.238372,97.5872093 C129.989717,97.2730002 129.564869,97.1582911 129.19186,97.3046512 C128.828372,97.396953 128.534339,97.6635434 128.406977,98.0162791 L127.622093,100.601163 L122.243023,77.7348837 L121.667442,75.2965116 L121.813953,75.3697674 C122.117542,75.4852873 122.428748,75.579698 122.745349,75.6523256 C122.955105,75.7172888 123.175225,75.7421411 123.394186,75.7255814 L123.75,75.7255814 C124.09417,75.671443 124.416583,75.5229156 124.681395,75.2965116 C124.979321,75.0740031 125.265737,74.8364871 125.539535,74.5848837 C125.759302,74.3651163 125.895349,74.3023256 125.968605,74.3023256 L126.115116,74.3023256 L132.027907,99.5232558 Z M114.603488,100.569767 L113.818605,97.9848837 C113.675314,97.6497212 113.379176,97.4042383 113.023256,97.3255814 C112.649017,97.2176889 112.245823,97.3265514 111.976744,97.6081395 L110.113953,99.544186 L116.068605,74.2395349 L116.215116,74.2395349 C116.280475,74.2992896 116.354588,74.3486979 116.434884,74.3860465 C116.581395,74.5325581 116.863953,74.7418605 117.146512,75.0348837 C117.310429,75.1936578 117.506791,75.3150452 117.722093,75.3906977 C117.966304,75.527621 118.231529,75.6231021 118.506977,75.6732558 L118.862791,75.6732558 C119.082558,75.6732558 119.29186,75.6 119.511628,75.6 L120.013953,77.6930233 L114.603488,100.569767 Z M135.753488,59.9965116 C135.533721,59.5674419 135.324419,59.2848837 135.177907,58.95 C135.108027,58.840648 135.048468,58.7250339 135,58.6046512 L135,58.5313953 C135.029611,58.3112196 135.07864,58.0940944 135.146512,57.8825581 C135.245531,57.5069054 135.29479,57.1198754 135.293023,56.7313953 C135.307369,56.4618343 135.257139,56.1927443 135.146512,55.9465116 C135.014876,55.624368 134.819039,55.3323932 134.57093,55.0883721 C134.306147,54.8266317 134.01901,54.5885176 133.712791,54.3767442 C133.493023,54.2302326 133.356977,54.094186 133.356977,54.0209302 C133.299447,53.9385845 133.273446,53.8382968 133.283721,53.7383721 C133.210465,53.5186047 133.210465,53.1627907 133.137209,52.8069767 C133.044773,52.3175676 132.848503,51.8536583 132.561628,51.4465116 C132.312174,51.1856723 132.022436,50.9666021 131.703488,50.7976744 C131.369755,50.6385797 131.01852,50.5191599 130.656977,50.4418605 C130.472979,50.4145497 130.299586,50.3386902 130.154651,50.222093 C130.094896,50.1567342 130.045488,50.0826218 130.00814,50.0023256 C129.837782,49.7307828 129.694089,49.443398 129.57907,49.144186 C129.505814,48.9976744 129.359302,48.7883721 129.223256,48.5686047 C129.056071,48.3458746 128.831926,48.1723424 128.574419,48.0662791 C128.123861,47.8565194 127.637049,47.7357046 127.140698,47.7104651 L125.926744,47.7104651 C125.861385,47.6507104 125.787273,47.6013021 125.706977,47.5639535 C125.560465,47.4174419 125.277907,47.2081395 124.995349,46.9151163 C124.831431,46.7563422 124.635069,46.6349548 124.419767,46.5593023 C124.175557,46.422379 123.910332,46.3268979 123.634884,46.2767442 L123.27907,46.2767442 C122.757949,46.2929629 122.245433,46.4139736 121.772093,46.6325581 C121.337566,46.9205271 120.772899,46.9205271 120.338372,46.6325581 C119.865126,46.4137012 119.352554,46.2926771 118.831395,46.2767442 L118.475581,46.2767442 C118.131411,46.3308826 117.808998,46.47941 117.544186,46.705814 C117.246261,46.9283225 116.959844,47.1658385 116.686047,47.4174419 C116.466279,47.6372093 116.330233,47.7 116.256977,47.7 C116.142528,47.7444027 116.015612,47.7444027 115.901163,47.7 L115.043023,47.7 C114.540008,47.6695576 114.039717,47.7937173 113.609302,48.055814 C113.301347,48.2362875 113.034107,48.4785853 112.824419,48.7674419 C112.591791,49.0922538 112.398576,49.4435529 112.248837,49.8139535 C112.175279,49.9695427 112.080158,50.1139868 111.966279,50.2430233 C111.90092,50.302778 111.826808,50.3521863 111.746512,50.3895349 C111.526744,50.4627907 111.244186,50.5360465 110.815116,50.672093 C109.966296,50.8730861 109.281595,51.4984199 109.004651,52.3255814 C108.912615,52.6702094 108.839253,53.019555 108.784884,53.372093 C108.711628,53.6546512 108.711628,53.8744186 108.638372,53.8744186 C108.578617,53.9397774 108.529209,54.0138899 108.49186,54.094186 C108.265124,54.298645 108.027573,54.490782 107.780233,54.6697674 C107.628031,54.8297258 107.459693,54.973514 107.277907,55.0988372 C107.120731,55.3272202 106.977449,55.5648595 106.848837,55.8104651 C106.771216,56.0658921 106.72208,56.3291199 106.702326,56.5953488 C106.711825,56.9830585 106.760917,57.3687828 106.848837,57.7465116 C106.910587,57.9596711 106.959511,58.1763383 106.995349,58.3953488 L106.995349,58.4686047 C106.986986,58.5462691 106.962002,58.6212229 106.922093,58.6883721 C106.78989,58.9709486 106.620991,59.2348525 106.419767,59.4732558 C106.309956,59.6570429 106.215452,59.8495527 106.137209,60.0488372 C106.047348,60.3011184 105.997902,60.5660105 105.990698,60.8337209 C106.008834,61.1918969 106.082989,61.545018 106.210465,61.8802326 C106.430233,62.3093023 106.639535,62.5918605 106.786047,62.9267442 C106.875584,63.0608255 106.949329,63.2048036 107.005814,63.355814 L107.005814,63.4290698 C106.976203,63.6492456 106.927174,63.8663707 106.859302,64.077907 C106.760283,64.4535598 106.711024,64.8405897 106.712791,65.2290698 C106.698445,65.4986308 106.748675,65.7677208 106.859302,66.0139535 C106.990938,66.3360972 107.186775,66.6280719 107.434884,66.872093 C107.699667,67.1338334 107.986804,67.3719475 108.293023,67.5837209 C108.512791,67.7302326 108.648837,67.8662791 108.648837,67.9395349 C108.706367,68.0218806 108.732368,68.1221683 108.722093,68.222093 C108.795349,68.4418605 108.795349,68.7976744 108.868605,69.1534884 C108.961041,69.6428975 109.157311,70.1068069 109.444186,70.5139535 C109.69364,70.7747928 109.983378,70.9938631 110.302326,71.1627907 C110.636059,71.3218854 110.987294,71.4413052 111.348837,71.5186047 C111.532835,71.5459154 111.706228,71.6217749 111.851163,71.7383721 C111.910917,71.8037309 111.960326,71.8778434 111.997674,71.9581395 C112.168032,72.2296823 112.311725,72.5170671 112.426744,72.8162791 C112.5,72.9627907 112.646512,73.172093 112.782558,73.3918605 C112.949743,73.6145905 113.173888,73.7881227 113.431395,73.894186 C113.577907,73.9674419 113.651163,73.9674419 113.713953,74.0406977 L106.901163,102.997674 C106.762977,103.486309 106.977608,104.005987 107.420325,104.254705 C107.863042,104.503423 108.418522,104.41639 108.763953,104.044186 L112.060465,100.465116 L113.42093,105.122093 C113.543127,105.596372 113.977919,105.922466 114.467442,105.906977 C114.97919,105.915324 115.421895,105.552306 115.513953,105.048837 L121.112791,82.4651163 L126.418605,105.122093 C126.54175,105.606531 126.965941,105.954368 127.465116,105.980233 C127.954639,105.995722 128.389431,105.669628 128.511628,105.195349 L129.872093,100.538372 L133.168605,104.117442 C133.493741,104.482241 134.028058,104.573466 134.455814,104.337209 C134.88595,104.0958 135.116728,103.609069 135.031395,103.123256 L128.218605,74.1662791 C128.29186,74.0930233 128.438372,74.0930233 128.501163,74.0197674 C128.809118,73.8392939 129.076358,73.5969961 129.286047,73.3081395 C129.518674,72.9833276 129.711889,72.6320285 129.861628,72.2616279 C129.935186,72.1060387 130.030307,71.9615946 130.144186,71.8325581 C130.209545,71.7728034 130.283657,71.7233951 130.363953,71.6860465 C130.583721,71.6127907 130.866279,71.5395349 131.295349,71.4034884 C132.125765,71.1604174 132.773609,70.5086228 133.011628,69.6767442 C133.103664,69.3321162 133.177026,68.9827706 133.231395,68.6302326 C133.304651,68.3476744 133.304651,68.127907 133.377907,68.127907 C133.437662,68.0625482 133.48707,67.9884357 133.524419,67.9081395 C133.751155,67.7036806 133.988706,67.5115435 134.236047,67.3325581 C134.3883,67.172654 134.556631,67.0288708 134.738372,66.9034884 C134.895548,66.6751053 135.03883,66.4374661 135.167442,66.1918605 C135.245063,65.9364334 135.294199,65.6732056 135.313953,65.4069767 C135.304454,65.0192671 135.255362,64.6335428 135.167442,64.255814 C135.105692,64.0426545 135.056768,63.8259873 135.02093,63.6069767 L135.02093,63.5337209 C135.029293,63.4560565 135.054278,63.3811026 135.094186,63.3139535 C135.226389,63.031377 135.395288,62.7674731 135.596512,62.5290698 C135.706323,62.3452827 135.800827,62.1527729 135.87907,61.9534884 C135.968931,61.7012072 136.018377,61.4363151 136.025581,61.1686047 C135.992785,60.8060232 135.897174,60.4519089 135.743023,60.122093 L135.753488,59.9965116 Z"/>
    </g>
    <rect width="180" height="180"/>
  </g>
</svg>
