<svg xmlns="http://www.w3.org/2000/svg" width="138" height="150" viewBox="0 0 138 150">
  <g fill="none" transform="translate(-.064)">
    <ellipse cx="79.458" cy="35.862" fill="#D1B9D8" rx="3.957" ry="3.97" transform="rotate(-75.55 79.458 35.862)"/>
    <path fill="#D1B9D8" stroke="#D1B9D8" d="M22.2588854,23.12 L22.2588854,55 L19.6771338,55 L19.6671656,20.39 C19.6670812,19.6852906 20.2307404,19.1109257 20.933121,19.1 L112.640127,18.86 C112.982891,18.8573343 113.312529,18.992067 113.555841,19.2342784 C113.799153,19.4764899 113.935998,19.806131 113.935987,20.15 C113.938644,20.4938586 113.804341,20.82455 113.562901,21.0686391 C113.321461,21.3127282 112.992869,21.4500103 112.650096,21.45 L23.4949363,21.82 C22.8004134,21.8470006 22.2529761,22.4227604 22.2588854,23.12 Z"/>
    <rect width="44.089" height="2.59" x="69.97" y="34.175" fill="#D1B9D8" stroke="#D1B9D8" rx="1.29" transform="rotate(-.48 92.014 35.47)"/>
    <rect width="44.089" height="2.59" x="69.801" y="3.927" fill="#D1B9D8" stroke="#D1B9D8" rx="1.29" transform="rotate(-.48 91.845 5.222)"/>
    <ellipse cx="99.859" cy="20.31" fill="#D1B9D8" rx="3.957" ry="3.97" transform="rotate(-.48 99.859 20.31)"/>
    <ellipse cx="84.978" cy="4.738" fill="#D1B9D8" rx="3.958" ry="3.97" transform="rotate(-.573 84.978 4.738)"/>
    <rect width="41.368" height="24.77" x=".538" y="55.07" fill="#E5E4F7" opacity=".64" rx="2.7"/>
    <ellipse cx="21.053" cy="61.67" fill="#D1B9D8" rx="4.027" ry="4.04"/>
    <path fill="#D1B9D8" d="M25.3290764,75.77 L16.7764013,75.77 C15.8447209,75.7748219 15.0053322,75.2062608 14.6615909,74.3375304 C14.3178495,73.4688 14.5400311,72.477506 15.2213694,71.84 L19.497707,67.84 C20.3687743,67.0183277 21.7267353,67.0183277 22.5978025,67.84 L26.8741401,71.84 C27.5541258,72.4762647 27.7768814,73.4650807 27.4357187,74.3328569 C27.0945559,75.2006332 26.2589358,75.77069 25.3290764,75.77 Z"/>
    <rect width="41.368" height="24.77" x=".369" y="82.48" fill="#E5E4F7" opacity=".64" rx="2.7"/>
    <ellipse cx="21.053" cy="89.34" fill="#D1B9D8" rx="4.027" ry="4.04"/>
    <path fill="#D1B9D8" d="M25.3290764,103.44 L16.7764013,103.44 C15.8447209,103.444822 15.0053322,102.876261 14.6615909,102.00753 C14.3178495,101.1388 14.5400311,100.147506 15.2213694,99.51 L19.497707,95.51 C20.3687743,94.6883277 21.7267353,94.6883277 22.5978025,95.51 L26.8741401,99.51 C27.5541258,100.146265 27.7768814,101.135081 27.4357187,102.002857 C27.0945559,102.870633 26.2589358,103.44069 25.3290764,103.44 Z"/>
    <rect width="41.368" height="24.77" x="45.226" y="82.48" fill="#E5E4F7" opacity=".64" rx="2.7"/>
    <ellipse cx="65.909" cy="89.34" fill="#888EF1" rx="4.027" ry="4.04"/>
    <path fill="#888EF1" d="M70.1857643,103.44 L61.6330892,103.44 C60.7014088,103.444822 59.8620201,102.876261 59.5182788,102.00753 C59.1745374,101.1388 59.396719,100.147506 60.0780573,99.51 L64.3543949,95.51 C65.2254622,94.6883277 66.5834232,94.6883277 67.4544904,95.51 L71.730828,99.51 C72.4108137,100.146265 72.6335693,101.135081 72.2924066,102.002857 C71.9512438,102.870633 71.1156236,103.44069 70.1857643,103.44 Z"/>
    <rect width="41.368" height="24.77" x="45.226" y="110.15" fill="#E5E4F7" opacity=".64" rx="2.7"/>
    <ellipse cx="65.909" cy="117.01" fill="#D1B9D8" rx="4.027" ry="4.04"/>
    <path fill="#D1B9D8" d="M70.1857643,131.11 L61.6330892,131.11 C60.7014088,131.114822 59.8620201,130.546261 59.5182788,129.67753 C59.1745374,128.8088 59.396719,127.817506 60.0780573,127.18 L64.3543949,123.18 C65.2254622,122.358328 66.5834232,122.358328 67.4544904,123.18 L71.730828,127.18 C72.4108137,127.816265 72.6335693,128.805081 72.2924066,129.672857 C71.9512438,130.540633 71.1156236,131.11069 70.1857643,131.11 Z"/>
    <rect width="41.368" height="24.77" x="1.196" y="110.15" fill="#E5E4F7" opacity=".64" rx="2.7"/>
    <ellipse cx="21.88" cy="117.01" fill="#D1B9D8" rx="4.027" ry="4.04"/>
    <path fill="#D1B9D8" d="M26.1564331,131.11 L17.6137261,131.11 C16.6820458,131.114822 15.8426571,130.546261 15.4989157,129.67753 C15.1551744,128.8088 15.3773559,127.817506 16.0586943,127.18 L20.3350318,123.18 C21.2060991,122.358328 22.5640601,122.358328 23.4351274,123.18 L27.711465,127.18 C28.3928033,127.817506 28.6149848,128.8088 28.2712435,129.67753 C27.9275022,130.546261 27.0881135,131.114822 26.1564331,131.11 Z"/>
    <rect width="41.368" height="24.77" x="45.226" y="54.81" fill="#E5E4F7" opacity=".64" rx="2.7"/>
    <ellipse cx="65.909" cy="61.67" fill="#D1B9D8" rx="4.027" ry="4.04"/>
    <path fill="#D1B9D8" d="M70.1857643,75.77 L61.6330892,75.77 C60.7014088,75.7748219 59.8620201,75.2062608 59.5182788,74.3375304 C59.1745374,73.4688 59.396719,72.477506 60.0780573,71.84 L64.3543949,67.84 C65.2254622,67.0183277 66.5834232,67.0183277 67.4544904,67.84 L71.730828,71.84 C72.4108137,72.4762647 72.6335693,73.4650807 72.2924066,74.3328569 C71.9512438,75.2006332 71.1156236,75.77069 70.1857643,75.77 Z"/>
    <ellipse cx="88.198" cy="98.238" fill="#FFF" rx="25.967" ry="26.05" transform="rotate(-43.13 88.198 98.238)"/>
    <path fill="#722A88" d="M88.2081847,128 C74.6413915,128.004993 62.7950911,118.788215 59.4238979,105.604961 C56.0527047,92.4217068 62.0133402,78.622236 73.9071234,72.0748367 C85.8009066,65.5274375 100.60527,67.8960003 109.878949,77.83 C117.978974,86.493318 120.174912,99.155958 115.46729,110.054575 C110.759669,120.953192 100.048209,128.004843 88.2081847,128 Z M88.2081847,74 C76.7849811,74.0151329 66.9412018,82.072382 64.6338366,93.2958812 C62.3264713,104.51938 68.1892962,115.826312 78.6744069,120.374257 C89.1595176,124.922201 101.386914,121.46195 107.957154,112.087484 C114.527393,102.713018 113.635795,89.9992702 105.821911,81.64 C101.248359,76.7663495 94.8603728,74.0204122 88.1882484,74.06 L88.2081847,74 Z"/>
    <rect width="6.3" height="43.39" x="118.613" y="110.669" fill="#722A88" rx="3.15" transform="rotate(-43.13 121.763 132.364)"/>
    <ellipse cx="88.198" cy="87.51" fill="#D1B9D8" rx="7.237" ry="7.26"/>
    <path fill="#D1B9D8" d="M95.8836624,112.87 L80.5127707,112.87 C78.8410927,112.869436 77.3391462,111.84519 76.7236105,110.285996 C76.1080748,108.726803 76.5036925,106.948645 77.7216879,105.8 L85.4071338,98.55 C86.9761129,97.0717222 89.4203202,97.0717222 90.9892994,98.55 L98.6847134,105.8 C99.9040405,106.949894 100.299071,108.730515 99.6809628,110.290651 C99.062855,111.850788 97.5571595,112.873544 95.8836624,112.87 Z"/>
  </g>
</svg>
