<svg xmlns="http://www.w3.org/2000/svg" width="160" height="159" viewBox="0 0 160 159">
  <g fill="none" fill-rule="evenodd" transform="translate(-10 -11)">
    <g fill-rule="nonzero" transform="translate(10 11)">
      <path fill="#E5E4F7" d="M102.017288,23.2244262 C100.925002,24.2424446 99.9585632,25.3888826 99.1388136,26.6390164 C95.6638983,32.0736885 90.9961017,39.6718033 90.0625424,46.7095082 C89.8421186,48.3255738 94.095,49.4594262 95.6898305,49.1857377 C96.5542373,49.0293443 97.4791525,48.8903279 98.4645763,48.7686885 C99.7611864,48.5992623 101.057797,48.4428689 102.354407,48.3255738 C103.286818,48.2439228 104.089216,47.6301519 104.416017,46.7486066 C112.195678,26.2610656 135.093814,21.5953279 142.225169,20.6830328 C143.443098,20.51563 144.332169,19.4409956 144.273814,18.2068033 L144.027458,12.0553279 C144.005308,11.3984458 143.714447,10.7798681 143.223558,10.3456643 C142.73267,9.91146055 142.085271,9.70012333 141.434237,9.76155738 C139.204068,9.97008197 135.63839,10.3871311 131.489237,11.13 C130.318995,11.3384632 129.174565,10.6493851 128.805254,9.51393443 L126.302797,1.81155738 C126.106928,1.20656647 125.679902,0.704607961 125.115721,0.416178097 C124.55154,0.127748233 123.896452,0.0764905905 123.294661,0.273688525 L123.229831,0.273688525 C122.627935,0.470564835 122.128545,0.899786546 121.841591,1.46686899 C121.554637,2.03395143 121.503642,2.69240893 121.699831,3.29729508 L123.917034,10.1134426 C124.122113,10.7320317 124.066288,11.408044 123.762546,11.9841808 C123.458805,12.5603177 122.933636,12.9863387 122.309237,13.1631148 C121.061822,13.520083 119.758038,12.8157674 119.365932,11.5731148 L117.148729,4.40508197 C116.958397,3.79225423 116.531542,3.281727 115.963715,2.98777975 C115.395888,2.69383251 114.734509,2.64101404 114.127627,2.84114754 L114.062797,2.84114754 C112.817604,3.24585534 112.129184,4.58325873 112.519831,5.83868852 L114.814831,13.2152459 C115.183218,14.3960124 114.591963,15.6638443 113.45339,16.1345902 L113.362627,16.1345902 C112.758584,16.3823995 112.079927,16.3707537 111.484651,16.1023637 C110.889376,15.8339738 110.42942,15.3322574 110.211864,14.7140164 L107.929831,7.81967213 C107.733962,7.21468122 107.306936,6.71272272 106.742755,6.42429285 C106.178574,6.13586299 105.523486,6.08460534 104.921695,6.28180328 L104.856864,6.28180328 C104.254969,6.47867959 103.755579,6.9079013 103.468625,7.47498374 C103.181671,8.04206619 103.130675,8.70052368 103.326864,9.30540984 L106.088644,17.854918 C106.383292,18.8182771 106.0401,19.8636026 105.232881,20.4614754 C104.095828,21.2744349 103.020956,22.1718637 102.017288,23.1462295 L102.017288,23.2244262 Z" opacity=".64"/>
      <path fill="#E5E4F7" d="M145.920508,79.2393443 C143.149408,70.3619624 137.367997,62.7429052 129.58322,57.7091803 C128.864101,57.2489401 128.440154,56.4412799 128.468136,55.5848361 C128.636695,46.905 135.353136,44.3766393 141.200847,43.8553279 C143.480293,43.6587987 145.773488,43.6893573 148.046949,43.9465574 C149.070604,44.0598582 150.050103,43.4965137 150.47161,42.5520492 L152.714746,37.5344262 C152.984373,36.934699 152.998384,36.250252 152.753528,35.6398845 C152.508671,35.029517 152.02623,34.5462819 151.418136,34.3022951 C140.591441,29.9363115 132.189407,30.392459 125.719322,32.9338525 C122.684286,34.1807754 119.885844,35.9443082 117.446949,38.1469672 C113.315511,41.9507199 109.975055,46.5397853 107.618644,51.6489344 C107.211694,52.4338524 106.411481,52.9334353 105.531102,52.9522131 C102.438939,53.0829637 99.359024,53.4225824 96.3122034,53.9687705 C94.8211017,54.242459 93.4207627,54.5682787 92.0722881,54.9201639 C90.4021881,55.3539087 88.757292,55.880372 87.1451695,56.4971311 C72.0266949,62.3488525 68.1368644,73.4397541 67.4237288,76.0463115 C67.3329661,76.3981967 67.2811017,76.6588525 67.2811017,76.6588525 C58.6586441,108.941066 79.4044068,121.100656 95.3138136,131.070738 C111.22322,141.04082 118.419407,142.878443 127.625339,140.897459 C137.99822,138.668852 144.390508,125.414508 147.476441,98.9840164 C148.350858,92.3315595 147.798219,85.5680284 145.855678,79.1481148 L145.920508,79.2393443 Z" opacity=".64"/>
      <path fill="#D1B9D8" d="M67.9812712,57.7613115 C69.3998281,59.6212341 69.6625097,62.1230613 68.6614705,64.2396516 C67.6604312,66.3562419 65.5643313,67.7309812 63.2337383,67.7994614 C60.9031452,67.8679417 58.7307292,66.6186249 57.6083898,64.5644262 C57.0969978,63.7806309 56.7730349,62.8884964 56.6618644,61.9578689 L35.0084746,62.2706557 C34.1573753,66.8614556 29.7706642,69.8941338 25.2011187,69.0508048 C20.6315732,68.2074757 17.6028183,63.8062416 18.4297411,59.2109798 C19.256664,54.6157181 23.6273506,51.5597539 28.2012712,52.3787705 L35.2288983,37.5995902 C32.9612939,37.5643121 30.8338997,36.4899362 29.4522502,34.6822692 C28.0706007,32.8746022 27.5860212,30.5316291 28.1364407,28.3202459 L13.8737288,27.577377 L13.8737288,27.3688525 C12.9400372,30.491973 9.92932395,32.5068516 6.70247889,32.1681133 C3.47563383,31.8293749 0.944077894,29.2326962 0.67253881,25.9830565 C0.400999726,22.7334167 2.46617359,19.7486753 5.59159845,18.8736691 C8.71702332,17.9986628 12.0199243,19.4805369 13.4588136,22.4033607 C13.9509653,23.3885925 14.1915785,24.481399 14.1589831,25.5833607 L28.8625424,26.3522951 C29.4372689,25.3281865 30.2517137,24.4603455 31.235339,23.8239344 C34.6705782,21.7596337 39.1149148,22.7957245 41.2954065,26.1691986 C43.4758983,29.5426726 42.6116644,34.0454166 39.3391525,36.3614754 C38.7649849,36.7386535 38.1407952,37.0326101 37.485,37.2346721 L30.0294915,52.8740164 C32.9521743,54.1665312 34.899087,57.006091 35.060339,60.2114754 L56.6877966,59.9508197 C57.1735666,57.458518 59.1130508,55.5104342 61.5929422,55.0239247 C64.0728336,54.5374153 66.5987654,55.6094659 67.9812712,57.7352459 L67.9812712,57.7613115 Z" opacity=".64"/>
      <path fill="#FFF" d="M68.3572881,43.1906557 C66.6068644,44.767623 65.7640678,47.1656557 64.3118644,49.0554098 C62.859661,50.9451639 59.3069492,51.9095902 58.1529661,53.9296721 C56.0121829,57.8337287 54.6263249,62.1099731 54.0686441,66.532377 C52.9924576,77.8969672 45.8611017,85.9251639 46.2889831,97.3418852 C46.5094068,103.923443 50.6585593,109.553607 54.6261864,114.688525 C56.7854297,117.779864 59.41004,120.514704 62.4058475,122.794918 C68.8888983,127.252131 77.4854237,124.293689 85.0705932,126.105246 C96.4418644,128.816066 97.8811017,126.000984 108.16322,120.084098 C121.323814,112.512049 124.876525,100.534918 121.310847,89.7046721 C117.745169,78.8744262 116.487458,67.0406557 111.806695,56.4971311 C109.978475,52.3657377 107.916864,48.130082 104.57161,45.2889344 C98.0885593,39.8281967 93.4855932,43.8553279 86.9117797,44.9761475 C81.1677966,45.9536066 74.1920339,37.9384426 68.3572881,43.1906557 Z"/>
      <path fill="#722A88" d="M119.703051,98.3063115 C120.685558,99.7779618 121.205086,101.512575 121.194153,103.284836 C121.34564,106.336519 119.714901,109.197353 117.019068,110.609262 C113.770089,108.773936 111.72853,105.348881 111.651102,101.603607 C111.565613,100.519237 110.665211,99.683085 109.583008,99.683085 C108.500806,99.683085 107.600404,100.519237 107.514915,101.603607 C107.588566,106.604494 110.213347,111.216563 114.464746,113.815328 C113.703178,116.37729 111.461831,118.211626 108.811525,118.441967 C108.565163,118.452576 108.318976,118.417226 108.085424,118.337705 C107.133059,118.224222 106.231058,118.794265 105.920085,119.706148 C104.299322,124.293689 100.603983,127.356393 96.4677966,127.395492 C93.3536827,127.053382 90.3638865,125.977236 87.7416102,124.25459 L87.7416102,121.139754 C87.845339,121.035492 93.0317797,110.478934 101.822797,110.400738 C102.600747,110.462702 103.347479,110.080605 103.755351,109.411865 C104.163222,108.743125 104.163222,107.900891 103.755351,107.232152 C103.347479,106.563412 102.600747,106.181315 101.822797,106.243279 C95.4045763,106.243279 90.6849153,110.296475 87.715678,113.867459 L87.4174576,80.5817213 C88.1305932,79.8518852 88.8566949,79.2784426 89.5698305,78.4834426 C90.6978814,77.3235246 91.929661,76.2809016 93.0577119,75.2252459 L99.4111017,79.3305738 C99.7551576,79.5379648 100.151105,79.6419833 100.552119,79.6303279 C101.254601,79.6174233 101.907185,79.2627296 102.302542,78.6789344 C102.586541,78.2210257 102.67779,77.6684209 102.556188,77.142847 C102.434587,76.6172731 102.110112,76.1618455 101.654237,75.8768852 L96.3381356,72.4883607 C98.3570659,70.6957714 100.881339,69.5797436 103.560254,69.2953279 C104.639075,69.2093994 105.470949,68.3043667 105.470949,67.2165984 C105.470949,66.12883 104.639075,65.2237973 103.560254,65.1378689 C97.8681356,65.1378689 92.7335593,69.9209016 87.4044915,74.9645902 L87.2618644,59.1427869 C90.0495763,57.8395082 97.9848305,54.8810656 104.234492,59.4034426 C104.60598,59.6871837 105.065079,59.8302363 105.531102,59.807459 C106.178417,59.7868166 106.782557,59.4760211 107.177797,58.9603279 C107.77162,58.0164314 107.583639,56.7771535 106.736949,56.0540164 C102.678559,53.082541 97.4921186,52.1441803 91.7092373,53.447459 C90.2370148,53.779103 88.7898717,54.2146078 87.3785593,54.7507377 L87.3785593,50.697541 C88.0019881,47.3786399 90.0649993,44.5118822 93.0058475,42.8778689 C94.1363129,42.3318667 95.3695299,42.0341947 96.6233898,42.0046721 C97.2499758,42.019332 97.8743684,42.0847074 98.4905085,42.2001639 L95.2100847,46.292459 C94.5030193,47.1683592 94.6057962,48.4481994 95.4434746,49.1987705 C95.8087548,49.5061506 96.2642139,49.6846932 96.7400847,49.7070492 C97.3441194,49.7269824 97.919915,49.4497627 98.2830508,48.9641803 L102.172881,44.2463115 C103.712055,45.5715134 104.871372,47.2856895 105.531102,49.2118033 C105.725757,49.8192556 106.214186,50.2856496 106.827712,50.449918 C111.495508,52.0790164 114.762966,57.24 114.814831,63.0656557 C114.827516,64.1499101 114.731953,65.2327088 114.529576,66.2977869 C114.394864,66.8906914 114.554341,67.5124513 114.957458,67.9659836 C116.807269,70.4152874 117.817248,73.401361 117.835932,76.4763934 C117.862753,78.2877396 117.564066,80.0890781 116.954237,81.7937705 C116.835514,81.8660499 116.744237,81.9761462 116.694915,82.1065574 L102.730424,82.2368852 C101.952473,82.1749212 101.205741,82.5570184 100.79787,83.2257581 C100.389998,83.8944977 100.389998,84.7367318 100.79787,85.4054714 C101.205741,86.0742111 101.952473,86.4563083 102.730424,86.3943443 L109.978475,86.3291803 C109.265339,87.267541 108.448475,88.2189344 107.527881,89.2615574 C105.064322,91.8681148 101.161525,95.0481148 96.9216102,95.0872131 C95.8427895,95.1731415 95.0109154,96.0781743 95.0109154,97.1659426 C95.0109154,98.253711 95.8427895,99.1587437 96.9216102,99.2446721 C105.997881,99.1664754 112.882881,89.6264754 114.918559,86.3813115 L119.677119,86.3813115 C120.569822,87.8116275 121.050101,89.4629003 121.064492,91.1513115 C121.077364,92.9189692 120.591845,94.6541383 119.664153,96.1559016 C119.14446,96.7873656 119.14446,97.7009131 119.664153,98.332377 L119.703051,98.3063115 Z M83.2942373,65.9719672 C80.1959123,63.0227312 76.0285046,61.4819539 71.7673729,61.7102459 C71.2111034,61.6951824 70.6757214,61.9235715 70.3000382,62.3361976 C69.924355,62.7488237 69.7453707,63.3050482 69.8094915,63.8606557 C69.8192985,64.4012534 70.0470936,64.9146728 70.4406686,65.2832434 C70.8342436,65.6518141 71.3598534,65.8439349 71.8970339,65.8155738 C76.8190474,65.6023686 81.3661295,68.449206 83.3461017,72.9836066 L83.3461017,78.8092623 C77.6021186,84.1657377 71.4302542,88.7011475 63.9617797,87.8279508 C63.1891334,87.629452 62.3723315,87.9027183 61.8721576,88.5270472 C61.3719838,89.1513761 61.2805672,90.0117694 61.638287,90.7281892 C61.9960068,91.444609 62.7369728,91.8850945 63.5338983,91.855082 C64.3590921,91.9684022 65.1905702,92.0293427 66.0233898,92.037541 C68.5774422,92.0030944 71.1022308,91.485813 73.4659322,90.5127049 C71.9618644,95.1002459 66.6068644,98.0717213 66.5031356,98.1759836 C65.7360734,98.667022 65.3675244,99.5962188 65.5880907,100.483022 C65.8086571,101.369825 66.5688792,102.015377 67.4755932,102.08582 C67.7964324,102.061756 68.1114889,101.986986 68.4091525,101.864262 C68.8240678,101.655738 77.7836441,96.6511475 77.9133051,88.3622951 C79.8686724,87.1830753 81.7247031,85.8449165 83.4627966,84.3612295 L83.6961864,109.332049 C81.0789963,108.037757 79.3557201,105.429593 79.1839831,102.502869 C79.24563,101.720918 78.8654879,100.970345 78.20017,100.560375 C77.5348521,100.150406 76.6969276,100.150406 76.0316097,100.560375 C75.3662918,100.970345 74.9861497,101.720918 75.0477966,102.502869 C75.1552708,106.302989 77.0883929,109.815078 80.2342373,111.925574 C81.3283525,112.691009 82.4767622,113.374887 83.6702542,113.971721 L83.7739831,124.267623 C82.8533898,125.570902 80.5972881,127.421557 75.1126271,127.473689 C73.1124078,127.470856 71.1713468,126.791433 69.6020339,125.544836 C73.2081968,123.039237 75.310554,118.871733 75.1904237,114.466967 C75.2520707,113.685016 74.8719286,112.934443 74.2066107,112.524474 C73.5412928,112.114505 72.7033682,112.114505 72.0380503,112.524474 C71.3727324,112.934443 70.9925903,113.685016 71.0542373,114.466967 C71.1213675,117.71765 69.5002957,120.769089 66.7754237,122.52123 C66.2417495,121.749002 65.8061715,120.912769 65.4788136,120.031967 C65.1421635,119.135349 64.2314804,118.593712 63.2875424,118.728689 C62.9763559,118.728689 62.7688983,118.832951 62.5614407,118.845984 C59.7737288,118.845984 57.1545763,116.39582 56.5062712,112.968197 C56.3525358,112.21245 55.7840296,111.610679 55.0411017,111.417295 C52.8959453,110.795519 51.2113646,109.121906 50.5677966,106.973115 C50.6715254,106.973115 50.7752542,106.868852 50.8789831,106.868852 C50.9827119,106.868852 57.1545763,103.063279 60.8239831,108.172131 C61.2272103,108.681516 61.8361036,108.982747 62.4836441,108.993197 C62.9058627,109.00875 63.3167257,108.853884 63.624661,108.563115 C64.0616206,108.255665 64.359067,107.786233 64.4514832,107.258218 C64.5438993,106.730204 64.4237043,106.186919 64.1173729,105.748033 C60.0330508,100.065738 53.8222881,100.847705 50.2177119,102.541967 C50.3675546,101.306766 50.8124056,100.126319 51.514322,99.1013115 C52.0332694,98.4256852 52.0332694,97.4831673 51.514322,96.807541 C50.5318152,95.3358906 50.0122868,93.6012772 50.0232203,91.8290164 C49.927593,89.111546 51.1873388,86.5253186 53.3814407,84.9346721 C54.1925032,84.3875219 54.524864,83.352982 54.185339,82.432377 C53.8869494,81.6533801 53.6358109,80.8569197 53.4333051,80.047377 C54.6932171,78.1884354 56.2533501,76.5542047 58.0492373,75.2122131 C59.3596532,74.2480939 60.8121536,73.496121 62.3539831,72.9836066 C63.405417,76.3233624 61.9107802,79.9388448 58.8142373,81.5461475 C58.3312308,81.8074042 57.9735514,82.2535227 57.8222219,82.7834466 C57.6708924,83.3133705 57.7387196,83.8822533 58.010339,84.3612295 C58.3530589,85.0159375 59.0381338,85.4159321 59.7737288,85.3908197 C60.094568,85.3667565 60.4096245,85.2919856 60.7072881,85.1692623 C65.2386778,82.7471277 67.5400618,77.5289337 66.2827119,72.527459 C67.5544302,72.6425966 68.8079938,72.9094738 70.0169492,73.322459 C71.0517108,73.7147396 72.20693,73.1895917 72.5972034,72.1495082 C72.9874768,71.1094247 72.4650159,69.9482642 71.4302542,69.5559836 C63.7413559,66.7148361 57.4657627,69.8948361 53.4592373,73.570082 C53.8465598,71.7676647 54.6307709,70.0753887 55.7542373,68.617623 C56.1369068,68.1535732 56.2852182,67.538041 56.1561864,66.9494262 C55.9423299,65.8895943 55.8294467,64.8116886 55.8190678,63.7303279 C55.6502871,59.0646919 57.8286051,54.6268703 61.6149153,51.922623 C63.1391602,55.9794829 66.6581368,58.9435122 70.8986441,59.7422951 L71.3135593,59.7422951 C72.2836218,59.7352429 73.1063293,59.0240757 73.2584746,58.0610656 C73.4739055,56.9682864 72.7742976,55.90476 71.6895763,55.6760656 C68.3946928,54.9896203 65.792033,52.4497704 65.0120339,49.1596721 C66.6327966,45.0934426 69.9261864,42.4608197 73.6474576,42.4217213 C74.9000281,42.4248931 76.1375939,42.6958923 77.2779661,43.2167213 C80.2854639,44.7719914 82.4135013,47.6319786 83.0478814,50.9712295 L83.1775424,65.9589344 L83.2942373,65.9719672 Z M125.239576,90.9688525 C125.261862,88.1170582 124.284054,85.3485031 122.477797,83.1491803 C122.371836,82.9517243 122.231276,82.7751209 122.062881,82.6278689 C121.777196,82.2944703 121.464978,81.9850054 121.129322,81.702541 C121.614279,80.0089446 121.841595,78.2513613 121.803559,76.4894262 C121.823397,72.814851 120.704007,69.2253124 118.600932,66.2195902 C118.763939,65.1505066 118.824725,64.0681902 118.782458,62.987459 C118.717627,55.7021311 114.827797,49.29 108.902288,46.8398361 C107.662683,43.8337465 105.50035,41.3041384 102.730424,39.6196721 C100.845362,38.4894586 98.6886382,37.8990556 96.4937288,37.912377 C94.6615248,37.9253794 92.8581123,38.3718542 91.2294915,39.2156557 C91.1722037,39.2156557 91.1257627,39.2623356 91.1257627,39.319918 C88.7030762,40.6443793 86.6823486,42.603442 85.2780508,44.9891803 C83.8908627,42.5790448 81.8182388,40.6410012 79.3266102,39.4241803 C79.2228814,39.4241803 79.2228814,39.319918 79.1191525,39.319918 C77.4339542,38.5170782 75.5901083,38.1072074 73.7252542,38.1209016 C68.1580978,38.3851602 63.2923065,41.9813487 61.3815254,47.2438525 C55.5078814,49.8504098 51.7347458,56.2886066 51.7995763,63.5609016 C51.7995763,64.6035246 51.9292373,65.7504098 52.0329661,66.78 C50.0357204,69.8454446 48.9887844,73.4378487 49.0248305,77.1019672 C49.0162378,78.8685475 49.274169,80.6262268 49.7898305,82.315082 C47.2393552,84.7602371 45.8279532,88.1697521 45.9,91.7117213 C45.9172982,93.8084365 46.4141758,95.873057 47.3522034,97.7459016 C46.4199461,99.6599888 45.9448942,101.766322 45.9648305,103.897377 C45.8676158,108.618691 48.5454103,112.95482 52.7979661,114.962213 C53.9112815,119.390577 57.7074935,122.614035 62.2372881,122.977377 C64.8305085,128.359918 69.6668644,131.748443 75.0477966,131.696311 C80.8436441,131.696311 84.1240678,129.845656 85.8874576,127.955902 C89.0506731,129.965735 92.6483289,131.181551 96.3770339,131.50082 C101.757966,131.50082 106.594322,127.968934 109.031949,122.534262 C113.578926,122.109534 117.344989,118.807125 118.380508,114.336639 C122.637098,112.293833 125.251603,107.876199 125.006186,103.141475 C124.986824,101.009728 124.471754,98.9120714 123.502119,97.0160656 C124.678999,95.2263799 125.272631,93.1129317 125.200678,90.9688525 L125.239576,90.9688525 Z"/>
      <path fill="#D1B9D8" d="M56.4544068,145.120082 L47.1836441,134.550492 C46.3914752,136.342842 44.8282492,137.67337 42.9389077,138.163368 C41.0495661,138.653365 39.0410338,138.249167 37.485,137.06582 L32.1170339,148.10459 L31.9873729,148.10459 C34.3040324,150.078344 34.7020073,153.519247 32.8976135,155.974558 C31.0932197,158.429868 27.7041852,159.059019 25.1462787,157.413539 C22.5883723,155.76806 21.7372843,152.411274 23.1996867,149.735963 C24.6620892,147.060653 27.9373334,145.982701 30.6907627,147.270492 L36.2532203,135.840738 C35.6429492,135.039283 35.237784,134.099477 35.0733051,133.103852 C34.5971254,130.232229 36.0737336,127.391497 38.6908475,126.144344 L28.6939831,115.131639 C28.3957627,115.248934 28.0975424,115.340164 27.799322,115.431393 C23.3059667,116.685878 18.6075676,114.260676 17.0039481,109.859077 C15.4003286,105.457478 17.4294216,100.555996 21.6661355,98.5970842 C25.9028493,96.6381726 30.9259822,98.2789472 33.2076405,102.367044 C35.4892988,106.455141 34.2641023,111.619211 30.3925424,114.232377 L40.7005932,125.596967 C42.6160635,125.402723 44.5168684,126.084777 45.8769286,127.454359 C47.2369888,128.823941 47.9120414,130.735778 47.7152542,132.660738 L57.5565254,143.868934 C59.5592591,141.982799 62.4488672,141.392828 65.025,142.344098 L66.5420339,143.113033 C69.8830818,145.337291 70.7996741,149.861679 68.5900117,153.222048 C66.3803493,156.582417 61.8799951,157.508075 58.5346961,155.290282 C55.1893971,153.072489 54.2641465,148.549882 56.4673729,145.185246 L56.4544068,145.120082 Z" opacity=".64"/>
      <g fill="#722A88" transform="translate(105 17)">
        <rect width="17.43" height="4.232" x="20.333" y="114.635" rx="1.752" transform="rotate(-135.55 29.048 116.751)"/>
        <rect width="17.43" height="4.232" x="-4.552" y="7.204" rx="1.752" transform="rotate(-76.95 4.163 9.32)"/>
        <rect width="17.459" height="4.239" x="21.483" y="25.033" rx="1.752" transform="rotate(-31.945 30.212 27.153)"/>
        <rect width="17.43" height="4.232" x="35.337" y="87.216" rx="1.752" transform="rotate(13.05 44.052 89.332)"/>
        <rect width="17.43" height="4.232" x="36.607" y="56.2" rx="1.752" transform="rotate(-5.5 45.322 58.316)"/>
      </g>
    </g>
    <rect width="180" height="180"/>
  </g>
</svg>
